# xmcd
#
# Track frame offsets: 
#        150
#        21796
#        34192
#        53496
#        75197
#        85899
#        111880
#        126080
#        143735
#        169653
#        183078
#        203355
#
# Disc length: 3106 seconds
#
# Revision: 5
# Processed by: cddbd v1.5.2PL0 Copyright (c) Steve Scherf et al.
# Submitted via: ExactAudioCopy v0.99pb5
#
DISCID=860c200c
DTITLE=Zhanna Bichevskaya - Cherniy voron
DYEAR=2002
DGENRE=Folk
TTITLE0=Cherniy voron
TTITLE1=Barynya
TTITLE2=Kazachya pritcha (son Sten'ki Razina)
TTITLE3=Lipa Vekovaya
TTITLE4=Marusenka
TTITLE5=Staruha
TTITLE6=Chuvchik
TTITLE7=Grustnaya ballada
TTITLE8=Kukushechka - iz kinofilma Morozko
TTITLE9=Kazachya byl'
TTITLE10=Sibirskaya ballada
TTITLE11=Obereg
EXTD=
EXTT0=
EXTT1=
EXTT2=
EXTT3=
EXTT4=
EXTT5=
EXTT6=
EXTT7=
EXTT8=
EXTT9=
EXTT10=
EXTT11=
PLAYORDER=
